<svg width="36" height="36" viewBox="0 0 36 36" fill="none" xmlns="http://www.w3.org/2000/svg">
<g opacity="0.1">
<path d="M35.373 16.3426H34.7625C34.1557 11.5494 29.6198 11.5457 28.0576 11.5457C27.6639 11.5457 27.2776 11.5561 26.9146 11.5659C26.6056 11.5741 26.3131 11.5817 26.0439 11.5817C25.2309 11.5817 24.4974 11.6154 23.8262 11.6799C19.9818 10.3614 15.8066 10.3614 11.963 11.6799C11.291 11.6154 10.5583 11.5817 9.74454 11.5817C9.47602 11.5817 9.18283 11.5734 8.87458 11.5659C8.51087 11.5554 8.12612 11.5457 7.73161 11.5457C6.16866 11.5457 1.63347 11.5502 1.02675 16.3426H0.625487C0.278994 16.3426 0 16.6238 0 16.9681C0 17.3145 0.278994 17.5935 0.625487 17.5935H0.95398C0.91348 20.169 2.10898 24.8541 7.00712 25.2719C7.10535 25.2861 7.31389 25.3086 7.60934 25.3086C8.77031 25.3086 11.8018 24.9434 14.9007 21.5662C15.1159 21.3487 16.4741 19.8922 17.0823 17.5935H18.7046C19.3143 19.8915 20.671 21.3487 20.887 21.5662C23.9852 24.9434 27.0166 25.3086 28.1776 25.3086C28.4746 25.3086 28.6824 25.2861 28.7814 25.2719C33.6781 24.8534 34.875 20.1682 34.833 17.5935H35.3737C35.7195 17.5935 36 17.3145 36 16.9681C35.9992 16.6238 35.7188 16.3426 35.373 16.3426ZM19.2678 13.3951C18.5959 14.1406 18.3273 15.0751 18.4481 16.254C18.4511 16.2855 18.4593 16.3118 18.463 16.3426H17.3223C17.326 16.3118 17.3343 16.2855 17.3373 16.254C17.458 15.0758 17.191 14.1413 16.5175 13.3951C16.0593 12.8874 15.4151 12.4974 14.5856 12.2057C16.7695 11.7752 19.0165 11.7752 21.1997 12.2057C20.3703 12.4974 19.7268 12.8881 19.2678 13.3951Z" fill="white"/>
<path d="M19.4682 16.1492C19.2822 14.3357 20.1221 12.6055 26.0433 12.6055C28.7605 12.6055 33.8087 11.8301 33.8087 17.4594C33.8087 17.4594 34.0509 23.8178 28.6645 24.2543C28.6645 24.2543 25.2671 24.8362 21.6274 20.8576C21.6267 20.8576 19.7652 19.0471 19.4682 16.1492Z" fill="white"/>
<path d="M16.3186 16.1492C16.5046 14.3357 15.6647 12.6055 9.74281 12.6055C7.02564 12.6055 1.97823 11.8301 1.97823 17.4594C1.97823 17.4594 1.73523 23.8178 7.12239 24.2543C7.12239 24.2543 10.5183 24.8362 14.1595 20.8576C14.1602 20.8576 16.0202 19.0471 16.3186 16.1492Z" fill="white"/>
<path d="M7.52452 12.5665L1.99717 18.0947C1.97467 17.7039 1.98142 17.4564 1.98142 17.4564C1.98142 17.209 1.98964 16.9764 2.01144 16.7582L6.12133 12.6565C6.587 12.5973 7.05949 12.5741 7.52452 12.5665Z" fill="white"/>
<path d="M11.0187 12.6342L2.65706 20.9965C2.43207 20.4798 2.28209 19.954 2.18457 19.4815L9.06943 12.5967C9.3094 12.5967 9.5344 12.6042 9.74441 12.6042C10.2019 12.605 10.6219 12.6117 11.0187 12.6342Z" fill="white"/>
<path d="M25.3281 12.6115L19.9065 18.0338C19.7864 17.7189 19.6815 17.3731 19.6064 17.0056L23.9188 12.6932C24.3463 12.6572 24.8188 12.6264 25.3281 12.6115Z" fill="white"/>
<path d="M28.9069 12.589L21.167 20.3213C20.942 20.0296 20.6571 19.6238 20.3945 19.1213L26.9276 12.5889C27.5419 12.574 28.2169 12.5515 28.9069 12.589Z" fill="white"/>
</g>
</svg>
