<svg fill="none" height="512" viewBox="0 0 32 32" width="512" xmlns="http://www.w3.org/2000/svg"><g opacity="0.1"><path fill="white" d="m11 27c-.3108 0-.615-.0284-.9101-.0826l.9816 2.454c.1519.3796.5196.6286.9285.6286h8c.4089 0 .7766-.249.9285-.6286l.9816-2.454c-.2951.0542-.5993.0826-.9101.0826z"/><path fill="white" d="m21 5c.3108 0 .615.02836.9101.08263l-.9816-2.45402c-.1519-.37966-.5196-.62861-.9285-.62861h-8c-.4089 0-.7766.24895-.9285.62861l-.9816 2.45402c.2951-.05427.5993-.08263.9101-.08263z"/><path fill="white" d="m7 10c0-2.20914 1.79086-4 4-4h10c2.2091 0 4 1.79086 4 4v12c0 2.2091-1.7909 4-4 4h-10c-2.20914 0-4-1.7909-4-4z"/></g></svg>