<svg width="36" height="36" viewBox="0 0 36 36" fill="none" xmlns="http://www.w3.org/2000/svg">
<g opacity="0.1">
<path d="M23.6924 3.78576C23.1446 3.67891 22.5767 3.79406 22.1137 4.10588C21.6507 4.4177 21.3306 4.90065 21.2236 5.44851L25.3552 6.25457C25.4081 5.98329 25.4071 5.70423 25.3522 5.43334C25.2973 5.16245 25.1896 4.90502 25.0352 4.67577C24.8808 4.44651 24.6827 4.24992 24.4523 4.09721C24.2219 3.9445 23.9637 3.83867 23.6924 3.78576V3.78576Z" fill="white"/>
<path d="M8.81228 19.4532C8.81228 19.4532 2.48106 23.9684 1.19519 25.5395C1.01339 25.7699 0.879464 26.0342 0.80128 26.3171C0.723096 26.5999 0.702229 26.8955 0.739907 27.1866C0.777585 27.4776 0.873048 27.7581 1.02069 28.0117C1.16832 28.2653 1.36516 28.4869 1.59963 28.6634C3.97563 30.3748 6.31703 27.8846 7.86362 26.3037C12.1234 27.4017 15.1874 30.7789 17.1561 31.8167C21.1499 33.9208 23.6904 27.5268 25.3939 25.3941C18.3281 21.0991 13.8281 19.9859 8.81228 19.4532V19.4532Z" fill="white"/>
<path d="M35.0161 22.2724C34.9098 23.0484 34.5286 23.7605 33.9418 24.2792C33.3549 24.7979 32.6014 25.0888 31.8182 25.0989C31.1011 25.1045 30.3304 25.1017 29.6217 25.0708C29.3453 25.058 29.0698 25.1108 28.8176 25.2246C28.5654 25.3385 28.3437 25.5103 28.1704 25.7261C26.8148 27.4249 23.1557 31.6211 19.7048 32.1892C18.8351 32.3547 17.935 32.224 17.1482 31.818C15.1795 30.7802 12.1139 27.4024 7.85574 26.3027C4.67199 25.4842 2.29824 25.9286 0.762615 27.3883C0.693972 27.068 0.696426 26.7365 0.769804 26.4172C0.843182 26.098 0.985697 25.7987 1.1873 25.5405C2.47262 23.9683 7.07949 18.557 7.07949 18.557C7.76855 9.06486 14.2739 3.88704 23.2795 5.29329C27.6473 5.97392 31.087 8.30267 32.8195 10.8311C35.3339 14.4986 35.6207 17.9917 35.0161 22.2724V22.2724Z" fill="white"/>
<path d="M28.8904 25.1944C28.6077 25.3049 28.3592 25.4883 28.1704 25.726C26.8148 27.4247 23.1557 31.621 19.7048 32.1891C18.8351 32.3546 17.935 32.2239 17.1482 31.8179C15.1795 30.7801 12.1139 27.4022 7.85574 26.3026C4.67199 25.4841 2.29824 25.9285 0.762615 27.3882C0.693973 27.0679 0.696426 26.7364 0.769804 26.4171C0.843182 26.0979 0.985697 25.7986 1.1873 25.5404C2.47262 23.9682 7.07949 18.5569 7.07949 18.5569C9.31788 17.8945 11.6908 17.8305 13.9617 18.3713C19.4461 19.6594 22.6186 23.0907 28.8904 25.1944V25.1944Z" fill="white"/>
<path d="M28.89 25.6162C28.8443 25.6163 28.799 25.6089 28.7558 25.5942C25.758 24.5888 23.4945 23.3037 21.3055 22.0612C18.9385 20.7176 16.7026 19.4484 13.8656 18.7818C11.6731 18.2628 9.38333 18.3224 7.22078 18.9548C7.11527 18.9921 6.99926 18.9859 6.89828 18.9377C6.7973 18.8894 6.71962 18.8031 6.68233 18.6976C6.64503 18.5921 6.65118 18.476 6.69941 18.3751C6.74765 18.2741 6.83402 18.1964 6.93953 18.1591C9.25352 17.4652 11.71 17.3967 14.0591 17.9605C17.0153 18.6547 19.3024 19.9529 21.7237 21.3277C23.8781 22.5503 26.1053 23.8148 29.0258 24.7944C29.1207 24.8262 29.2012 24.8908 29.2528 24.9765C29.3045 25.0622 29.324 25.1635 29.3079 25.2623C29.2918 25.3611 29.2411 25.4509 29.1648 25.5157C29.0886 25.5805 28.9917 25.6162 28.8917 25.6162H28.89Z" fill="white"/>
</g>
</svg>
