<svg id="Layer_1" enable-background="new 0 0 52 52" height="720" viewBox="0 0 52 52" width="720" xmlns="http://www.w3.org/2000/svg"><g id="_x31_6" opacity="0.1"><path fill="white" d="m49.7826576 17.2970772c-.7308197-.9270763-4.7446213-5.0609064-16.098877-.970747-2.2141705 1.145298-5.9771309 2.912241-7.6894855 2.7486076-1.7342567.1527157-5.4753799-1.6033096-7.6786346-2.7486076-11.3433342-4.0792418-15.3571358.0218353-16.1097279.970747-1.0430423 10.286253 3.8433528 24.5161552 12.3031635 18.8692551 1.9741821-1.3087997 4.0247192-2.5303879 6.1297798-3.6102448 3.4030075-1.7560272 7.2968483-1.7560272 10.6998539 0 2.1050606 1.0798569 4.1665192 2.2905273 6.1406975 3.6102448 8.3009186 5.5407562 13.4129181-8.0283089 12.3032303-18.8692551zm-34.5100517 12.0087185c-3.5338869 0-6.3806877-4.0356369-6.3806877-4.0356369s2.8468008-4.0464897 6.3806877-4.0464897c3.5229702 0 6.3806229 4.0464897 6.3806229 4.0464897s-2.8576527 4.0356369-6.3806229 4.0356369zm21.4542313 0c-3.533886 0-6.3806229-4.0356369-6.3806229-4.0356369s2.8467369-4.0464897 6.3806229-4.0464897c3.5229683 0 6.3806877 4.0464897 6.3806877 4.0464897s-2.8577194 4.0356369-6.3806877 4.0356369z"/></g></svg>