<svg width="36" height="36" viewBox="0 0 36 36" fill="none" xmlns="http://www.w3.org/2000/svg">
<g opacity="0.1">
<path d="M8.69005 6.82751C8.34728 6.82751 8.06934 7.10539 8.06934 7.44823V13.6551C8.06934 13.9979 8.34721 14.2759 8.69005 14.2759C9.03283 14.2759 9.31077 13.998 9.31077 13.6551V7.44823C9.3107 7.10546 9.03283 6.82751 8.69005 6.82751Z" fill="white"/>
<path d="M27.3102 6.82751C26.9674 6.82751 26.6895 7.10539 26.6895 7.44823V13.6551C26.6895 13.9979 26.9673 14.2759 27.3102 14.2759C27.653 14.2759 27.9309 13.998 27.9309 13.6551V7.44823C27.9309 7.10546 27.653 6.82751 27.3102 6.82751Z" fill="white"/>
<path d="M9.38462 16.0014C10.212 15.6684 10.6872 14.7956 10.5176 13.92C10.348 13.0444 9.58135 12.412 8.68943 12.412C7.79752 12.412 7.0309 13.0444 6.86131 13.92C6.69171 14.7956 7.16681 15.6685 7.99425 16.0014H9.38462Z" fill="white"/>
<path d="M28.0047 16.0014C28.8321 15.6684 29.3073 14.7956 29.1377 13.92C28.9681 13.0444 28.2015 12.412 27.3095 12.412C26.4176 12.412 25.651 13.0444 25.4814 13.92C25.3118 14.7956 25.7869 15.6685 26.6144 16.0014H28.0047Z" fill="white"/>
<path d="M9.21459 15.7288C9.1009 15.5484 8.90269 15.439 8.6895 15.439C8.47631 15.439 8.27803 15.5484 8.16441 15.7288L2.03632 25.4482C-0.434673 29.7837 3.15977 35.9999 8.6895 35.9999C14.2186 35.9999 17.8137 29.7837 15.342 25.4482L9.21459 15.7288Z" fill="white"/>
<path d="M7.5592 21.3438L8.68947 19.5519L9.81975 21.3438L10.9494 23.1357L12.0797 24.9276L13.2093 26.7195C13.3776 27.0252 13.5 27.354 13.5724 27.6953C13.646 28.044 13.6724 28.4009 13.6506 28.7566C13.6277 29.1305 13.5589 29.5001 13.4458 29.8571C13.3257 30.2383 13.1632 30.605 12.9616 30.9501C12.7346 31.3415 12.4602 31.7034 12.1448 32.0277C11.8418 32.3391 11.5001 32.6102 11.1281 32.8346C10.7631 33.0543 10.3704 33.2244 9.96051 33.3404C9.12935 33.5738 8.24995 33.5738 7.41879 33.3404C7.00865 33.2244 6.61582 33.0543 6.25061 32.8346C5.87845 32.6104 5.53673 32.3392 5.2339 32.0277C4.91805 31.703 4.64362 31.3405 4.41708 30.9483C4.21535 30.6034 4.05293 30.237 3.9329 29.8558C3.8204 29.4984 3.75157 29.1287 3.72808 28.7547C3.70636 28.3992 3.73265 28.0425 3.80627 27.694C3.87869 27.3527 4.00104 27.0239 4.16936 26.7183L5.29901 24.9264L6.42928 23.1344L7.5592 21.3438Z" fill="white"/>
<path d="M8.68907 32.276C7.64135 32.2767 6.63412 31.871 5.87924 31.1444C5.62542 30.9013 5.4033 30.6271 5.21824 30.3282C5.05476 30.0661 4.92208 29.786 4.82287 29.4934C4.72816 29.2124 4.67057 28.9203 4.65159 28.6244C4.63331 28.3356 4.6563 28.0457 4.71986 27.7635C4.78427 27.4796 4.89234 27.2074 5.04014 26.9566L8.17396 22.3045C8.29806 22.1206 8.51076 22.017 8.73196 22.0325C8.95317 22.0481 9.14934 22.1805 9.24651 22.3798C9.34368 22.5791 9.32709 22.8153 9.20306 22.9991L6.08969 27.6207C6.01727 27.7526 5.96383 27.8941 5.93078 28.0409C5.89338 28.2072 5.88002 28.3779 5.89106 28.548C5.90392 28.7361 5.94105 28.9218 6.00152 29.1004C6.06986 29.3012 6.16106 29.4934 6.27335 29.6733C6.40413 29.8833 6.56029 30.0763 6.73825 30.2481C6.9115 30.4137 7.10479 30.5569 7.31362 30.6745C7.73317 30.9117 8.20715 31.0357 8.68907 31.0345C9.03185 31.0345 9.30979 31.3124 9.30979 31.6552C9.30972 31.9981 9.03185 32.276 8.68907 32.276Z" fill="white"/>
<path d="M27.8347 15.7288C27.721 15.5484 27.5228 15.439 27.3096 15.439C27.0964 15.439 26.8982 15.5484 26.7845 15.7288L20.6564 25.4482C18.1855 29.7837 21.7798 35.9999 27.3095 35.9999C32.8386 35.9999 36.4337 29.7837 33.9621 25.4482L27.8347 15.7288Z" fill="white"/>
<path d="M26.1802 21.3438L27.3105 19.5519L28.4408 21.3438L29.5704 23.1357L30.7007 24.9276L31.8303 26.7195C31.9986 27.0252 32.121 27.354 32.1934 27.6953C32.267 28.044 32.2934 28.4009 32.2716 28.7566C32.2487 29.1305 32.1799 29.5001 32.0668 29.8571C31.9467 30.2383 31.7843 30.605 31.5827 30.9501C31.3556 31.3415 31.0813 31.7034 30.7659 32.0277C30.4629 32.3391 30.1212 32.6102 29.7491 32.8346C29.3842 33.0543 28.9915 33.2244 28.5816 33.3404C27.7504 33.5738 26.871 33.5738 26.0399 33.3404C25.6297 33.2244 25.2369 33.0543 24.8717 32.8346C24.4995 32.6104 24.1578 32.3392 23.855 32.0277C23.5391 31.703 23.2647 31.3405 23.0382 30.9483C22.8364 30.6034 22.674 30.237 22.554 29.8558C22.4415 29.4984 22.3727 29.1287 22.3492 28.7547C22.3275 28.3992 22.3537 28.0425 22.4274 27.694C22.4998 27.3527 22.6221 27.0239 22.7905 26.7183L23.9201 24.9264L25.0504 23.1344L26.1802 21.3438Z" fill="white"/>
<path d="M8.68955 8.68964C11.0891 8.68964 13.0344 6.7444 13.0344 4.34482C13.0344 1.94524 11.0891 0 8.68955 0C6.28997 0 4.34473 1.94524 4.34473 4.34482C4.34473 6.7444 6.28997 8.68964 8.68955 8.68964Z" fill="white"/>
<path d="M27.3097 8.68964C29.7092 8.68964 31.6545 6.7444 31.6545 4.34482C31.6545 1.94524 29.7092 0 27.3097 0C24.9101 0 22.9648 1.94524 22.9648 4.34482C22.9648 6.7444 24.9101 8.68964 27.3097 8.68964Z" fill="white"/>
<path d="M8.68984 5.58633C8.00422 5.58633 7.44847 5.03058 7.44847 4.34496C7.44847 4.00219 7.17059 3.72424 6.82775 3.72424C6.48491 3.72424 6.20703 4.00212 6.20703 4.34496C6.20703 5.71612 7.3186 6.82769 8.68977 6.82769C9.03254 6.82769 9.31048 6.54982 9.31048 6.20697C9.31048 5.86427 9.03261 5.58633 8.68984 5.58633Z" fill="white"/>
<path d="M8.68908 1.86218C8.3463 1.86218 8.06836 2.14006 8.06836 2.4829C8.06836 2.82575 8.34623 3.10362 8.68908 3.10362C9.3747 3.10362 9.93045 3.65937 9.93045 4.34499C9.93045 4.68776 10.2083 4.96571 10.5512 4.96571C10.894 4.96571 11.1719 4.68783 11.1719 4.34499C11.1718 2.97375 10.0602 1.86218 8.68908 1.86218Z" fill="white"/>
<path d="M27.31 5.58633C26.6243 5.58633 26.0686 5.03058 26.0686 4.34496C26.0686 4.00219 25.7907 3.72424 25.4479 3.72424C25.105 3.72424 24.8271 4.00212 24.8271 4.34496C24.8271 5.71612 25.9387 6.82769 27.3099 6.82769C27.6527 6.82769 27.9306 6.54982 27.9306 6.20697C27.9307 5.86427 27.6528 5.58633 27.31 5.58633Z" fill="white"/>
<path d="M27.3111 1.86218C26.9684 1.86218 26.6904 2.14006 26.6904 2.4829C26.6904 2.82575 26.9683 3.10362 27.3111 3.10362C27.9968 3.10362 28.5525 3.65937 28.5525 4.34499C28.5525 4.68776 28.8304 4.96571 29.1732 4.96571C29.5161 4.96571 29.794 4.68783 29.794 4.34499C29.794 2.97375 28.6824 1.86218 27.3111 1.86218Z" fill="white"/>
<path d="M27.63 32.2759C26.9344 32.2773 26.2502 32.0988 25.6439 31.7577C25.3442 31.5884 25.0669 31.3824 24.8183 31.1444C24.5648 30.9011 24.3429 30.6269 24.1579 30.3282C23.9939 30.0664 23.8612 29.7862 23.7625 29.4934C23.6678 29.2124 23.6102 28.9203 23.5912 28.6244C23.5726 28.3356 23.5956 28.0457 23.6595 27.7635C23.7236 27.4795 23.8317 27.2073 23.9798 26.9566L27.1136 22.3045C27.2377 22.1206 27.4504 22.017 27.6716 22.0325C27.8928 22.0481 28.089 22.1805 28.1861 22.3798C28.2833 22.5791 28.2667 22.8153 28.1427 22.9991L25.03 27.6207C24.9576 27.7527 24.904 27.8941 24.8704 28.0409C24.8332 28.2072 24.8201 28.378 24.8313 28.548C24.8438 28.7361 24.881 28.9219 24.9418 29.1004C25.0101 29.3012 25.1013 29.4934 25.2136 29.6733C25.3444 29.8833 25.5006 30.0763 25.6785 30.2481C25.8516 30.4138 26.045 30.5571 26.2539 30.6745C26.461 30.7911 26.6821 30.8809 26.9118 30.942C27.1463 31.0033 27.3876 31.0344 27.63 31.0345C27.9727 31.0345 28.2507 31.3124 28.2507 31.6552C28.2507 31.9981 27.9728 32.2759 27.63 32.2759Z" fill="white"/>
</g>
</svg>
