<svg id="Capa_1" enable-background="new 0 0 512 512" height="512" viewBox="0 0 512 512" width="512" xmlns="http://www.w3.org/2000/svg"><g opacity="0.1"><path fill="white" d="m497.048 50.274c-8.269-.021-14.995 6.663-15.048 14.929-.002.418-.589 42.349-28.398 83.278-21.276 31.315-52.147 53.784-92.232 67.298-.052-8.24-6.743-14.904-14.995-14.904-8.284 0-15 6.716-15 15v7.985c-18.541 3.864-38.672 6.163-60.375 6.88v-14.865c0-8.284-6.716-15-15-15s-15 6.716-15 15v14.865c-21.703-.717-41.834-3.016-60.375-6.88v-7.985c0-8.284-6.716-15-15-15-8.252 0-14.943 6.665-14.995 14.904-40.085-13.514-70.955-35.983-92.232-67.298-27.732-40.816-28.392-82.629-28.398-83.274-.023-8.265-6.73-14.957-15-14.957-8.284 0-15 6.716-15 15 0 2.03.371 50.286 32.644 98.695 18.957 28.436 44.971 51.055 77.32 67.229 12.599 6.3 26.17 11.606 40.661 15.92v10.823c0 8.284 6.716 15 15 15s15-6.716 15-15v-3.563c18.858 3.59 39.01 5.73 60.375 6.407v21.984c4.851-.976 9.866-1.495 15-1.495s10.149.519 15 1.495v-21.984c21.365-.677 41.517-2.817 60.375-6.407v3.563c0 8.284 6.716 15 15 15s15-6.716 15-15v-10.823c14.491-4.314 28.062-9.62 40.661-15.92 32.349-16.174 58.363-38.793 77.32-67.229 32.273-48.409 32.644-96.665 32.644-98.695 0-8.266-6.687-14.949-14.952-14.976z"/><path fill="white" d="m210.105 357.145v58.711c0 25.307 20.588 45.895 45.895 45.895s45.895-20.588 45.895-45.895v-58.711c0-25.307-20.588-45.895-45.895-45.895s-45.895 20.588-45.895 45.895z"/></g></svg>