<svg id="Glyph" height="512" viewBox="0 0 64 64" width="512" xmlns="http://www.w3.org/2000/svg"><g fill="white"><path d="m51.76 4h-18.76v56h18.76a3.999 3.999 0 0 0 4-4v-48a3.99891 3.99891 0 0 0 -4-4zm-1.77 46.36h-10.44a1 1 0 0 1 0-2h10.44a1 1 0 0 1 0 2zm1 2.33a1.003 1.003 0 0 1 -1 1h-10.44a1 1 0 0 1 0-2h10.44a.99654.99654 0 0 1 1 1zm-1-5.65h-10.44a1 1 0 1 1 0-2h10.44a1 1 0 0 1 0 2zm-10.44-33.62h10.44a1 1 0 0 1 0 2h-10.44a1 1 0 0 1 0-2zm-1-2.32a1.003 1.003 0 0 1 1-1h10.44a1 1 0 0 1 0 2h-10.44a1.003 1.003 0 0 1 -1-1zm1 5.65h10.44a1 1 0 1 1 0 2h-10.44a1 1 0 0 1 0-2zm9.68 16.38a3.28 3.28 0 1 1 3.28-3.28 3.28191 3.28191 0 0 1 -3.28 3.28z"/><path d="m8.24 8v48a3.999 3.999 0 0 0 4 4h18.76v-56h-18.76a3.99891 3.99891 0 0 0 -4 4zm8.02 5.42h10.45a1 1 0 0 1 0 2h-10.45a1 1 0 0 1 0-2zm-1-2.32a1.003 1.003 0 0 1 1-1h10.45a1 1 0 0 1 0 2h-10.45a1.003 1.003 0 0 1 -1-1zm14.3 18.75a3.28 3.28 0 1 1 -3.28-3.28 3.28191 3.28191 0 0 1 3.28 3.28zm-13.3-13.1h10.45a1 1 0 0 1 0 2h-10.45a1 1 0 0 1 0-2zm0 28.29h10.45a1 1 0 0 1 0 2h-10.45a1 1 0 0 1 0-2zm0 3.32h10.45a1 1 0 0 1 0 2h-10.45a1 1 0 0 1 0-2zm0 3.33h10.45a1 1 0 0 1 0 2h-10.45a1 1 0 0 1 0-2z"/><path d="m25 29.85a1.28 1.28 0 1 0 2.56 0 1.28 1.28 0 0 0 -2.56 0z"/><path d="m49.23 28.57a1.28 1.28 0 1 0 1.28 1.28 1.28243 1.28243 0 0 0 -1.28-1.28z"/></g></svg>