<?xml version="1.0" encoding="UTF-8"?><svg id="Capa_1" xmlns="http://www.w3.org/2000/svg" viewBox="0 0 438.53 247.95"><path fill="white" d="M420.26,0H18.27C13.32,0,9.04,1.44,5.42,4.33,1.81,7.22,0,10.63,0,14.58V233.36c0,3.95,1.81,7.37,5.42,10.25,3.61,2.89,7.9,4.33,12.85,4.33H420.26c4.95,0,9.23-1.45,12.85-4.33,3.61-2.88,5.42-6.3,5.42-10.25V14.58c0-3.95-1.8-7.37-5.42-10.25-3.61-2.89-7.9-4.33-12.85-4.33Zm-151.61,68.6c-3.61,2.89-7.9,4.33-12.85,4.33h-73.09c-4.95,0-9.23-1.44-12.85-4.33-3.62-2.89-5.42-6.3-5.42-10.26s1.81-7.37,5.42-10.25c3.62-2.89,7.9-4.33,12.85-4.33h73.1c4.95,0,9.23,1.44,12.85,4.33,3.61,2.89,5.42,6.3,5.42,10.25s-1.81,7.37-5.43,10.26Z"/></svg>