<svg id="Layer_3" enable-background="new 0 0 32 32" height="512" viewBox="0 0 32 32" width="512" xmlns="http://www.w3.org/2000/svg"><path fill="white" d="m30 9.83997h-5.03998c-.19-1.46997-1.44-2.62-2.97003-2.62h-13.94c-.54999 0-1 .45001-1 1v1.62h-5.04999c-.54999 0-1 .45001-1 1.01001v10.31c0 .54999.45001 1 1 1h5.04999v1.62c0 .54999.45001 1 1 1h13.94c1.53003 0 2.78003-1.14996 2.97003-2.62h5.03998c.54999 0 1-.45001 1-1v-10.31c0-.56-.45001-1.01001-1-1.01001zm-7.91998 12.32h.83997c-.14996.35999-.51001.62-.92999.62h-12.94l.01-5.77997h6.96002c.56 0 1-.45001 1-1s-.44-1-1-1h-6.96002l-.01001-5.78003h12.94c.41998 0 .78003.26001.92999.62h-.83997c-.56 0-1.01001.45001-1.01001 1.01001v10.31c.00001.54998.45002.99999 1.01002.99999z"/></svg>