<svg width="21" height="29" viewBox="0 0 21 29" fill="none" xmlns="http://www.w3.org/2000/svg">
<g opacity="0.25">
<path d="M10.564 14.4026V0.859863L2.33398 5.04347V14.3719L10.564 14.4026Z" fill="white"/>
<path fill-rule="evenodd" clip-rule="evenodd" d="M9.54239 0.0381714C4.47838 0.524175 0.510878 4.53443 0.06062 9.6222C-0.0202067 10.5352 -0.0202067 18.2816 0.06062 19.1946C0.347751 22.4389 2.00924 25.256 4.69593 27.054C7.39103 28.8576 10.8408 29.3078 13.8871 28.2534C17.8452 26.8834 20.5684 23.3852 20.9393 19.1946C21.0213 18.2684 21.0198 10.5997 20.9374 9.64849C20.5686 5.38845 17.7787 1.84664 13.7498 0.523622C12.4591 0.0998354 10.843 -0.0866922 9.54239 0.0381714ZM12.1583 2.79383C14.1771 3.2541 15.9036 4.43702 17.0531 6.14764C17.5712 6.91863 17.9959 7.93903 18.2161 8.94218C18.3228 9.42782 18.3308 9.80941 18.3308 14.4084C18.3308 19.0074 18.3228 19.389 18.2161 19.8747C17.9959 20.8778 17.5712 21.8982 17.0531 22.6692C16.7087 23.1817 16.5812 23.3339 16.0078 23.9164C14.9675 24.9732 13.581 25.7192 12.0354 26.0537C11.2609 26.2214 9.62961 26.2085 8.86556 26.0288C5.7277 25.2907 3.47186 23.008 2.78379 19.8747C2.67711 19.389 2.66912 19.0074 2.66912 14.4084C2.66912 9.80941 2.67711 9.42782 2.78379 8.94218C3.24246 6.8534 4.42999 5.09376 6.16997 3.92448C7.11176 3.29163 8.47439 2.78935 9.6094 2.65674C10.1407 2.59465 11.6377 2.67517 12.1583 2.79383ZM10.0086 6.64476C9.73101 6.76502 9.47477 7.01026 9.32737 7.29678C9.21681 7.51175 9.21018 7.69244 9.21018 10.4776C9.21018 13.2628 9.21681 13.4435 9.32737 13.6585C9.84199 14.6589 11.2067 14.6486 11.6733 13.6407C11.7789 13.4125 11.7872 13.1858 11.7884 10.4598C11.7897 7.69066 11.7831 7.51175 11.6726 7.29678C11.3492 6.66823 10.617 6.38128 10.0086 6.64476Z" fill="white"/>
</g>
</svg>
