<svg width="20" height="30" viewBox="0 0 20 30" fill="none" xmlns="http://www.w3.org/2000/svg">
<path fill-rule="evenodd" clip-rule="evenodd" d="M9.54674 0.0741869C8.99873 0.25161 8.52839 0.970442 8.30306 1.97486L8.18093 2.51938L6.78854 2.52026C5.58777 2.52108 5.33256 2.53736 4.93431 2.63891C4.39169 2.77725 3.62989 3.14135 3.62989 3.26241C3.62989 3.51178 4.98267 12.1062 5.07764 12.4603C5.54619 14.2068 6.95271 15.6052 8.69181 16.0537C9.36206 16.2265 9.3422 16.2338 9.3766 15.8003C9.39281 15.5958 9.45055 15.3602 9.5051 15.276C9.71867 14.9461 10.2813 14.9461 10.4949 15.276C10.5495 15.3602 10.6072 15.5958 10.6234 15.8003C10.6577 16.2328 10.6404 16.2261 11.2908 16.0578C12.2123 15.8193 13.0246 15.334 13.7122 14.611C14.3208 13.9709 14.7299 13.2341 14.9436 12.3925C15.0194 12.0941 16.3122 3.40649 16.3122 3.19573C16.3122 3.0929 15.6084 2.7766 15.0685 2.63692C14.675 2.53508 14.4261 2.51938 13.2074 2.51938H11.8005L11.7632 2.29965C11.6152 1.42794 11.3651 0.84968 10.9575 0.437294C10.5524 0.0274874 10.0725 -0.0960875 9.54674 0.0741869ZM10.2214 1.47933C10.3435 1.68154 10.5212 2.23473 10.5212 2.41285C10.5212 2.50795 10.4653 2.51938 10 2.51938C9.40353 2.51938 9.41337 2.53162 9.57118 1.98805C9.69122 1.57461 9.86646 1.2889 10 1.2889C10.0585 1.2889 10.1582 1.37457 10.2214 1.47933ZM17.4125 4.24913C17.4125 4.26589 17.1516 6.07861 16.8326 8.27747C16.485 10.674 16.1944 12.4865 16.1071 12.8026C15.5634 14.7702 14.1194 16.367 12.2639 17.0522C11.8007 17.2233 11.1744 17.3827 10.8397 17.4149L10.666 17.4316L10.6368 18.4863C10.6064 19.5827 10.5775 19.717 10.3341 19.8895C10.0667 20.0791 9.63401 19.9697 9.46503 19.6698C9.41777 19.586 9.38221 19.1739 9.36322 18.4901L9.33403 17.4392L8.87075 17.3611C7.60582 17.1477 6.42752 16.5309 5.49824 15.5958C4.74912 14.8419 4.18357 13.8574 3.89373 12.8026C3.81398 12.5126 3.48685 10.5614 3.16666 8.46668C2.4806 3.97837 2.52971 4.27023 2.46676 4.3096C2.37631 4.36614 2.01066 5.07267 1.88917 5.42564C1.82367 5.61578 1.7459 5.90318 1.71619 6.06432C1.67415 6.29272 0.17439 22.0773 0.00980949 24.0234C-0.0106328 24.2651 0.00193388 24.7002 0.0376644 24.9902C0.317834 27.2624 1.78238 29.0561 3.90797 29.7303C4.17239 29.8142 4.40038 29.8828 4.41468 29.8828C4.42893 29.8828 4.44103 28.8479 4.4415 27.583C4.44242 25.0352 4.46495 24.8235 4.80401 24.1753C5.04324 23.718 5.64446 23.1097 6.09645 22.8676C6.75518 22.5148 6.89561 22.5017 10 22.5017C13.1044 22.5017 13.2448 22.5148 13.9035 22.8676C14.4204 23.1444 14.9809 23.7349 15.2292 24.2643C15.3409 24.5024 15.4609 24.837 15.4958 25.0077C15.5356 25.202 15.5594 26.1723 15.5594 27.6005C15.5594 28.8558 15.5711 29.8828 15.5853 29.8828C15.5996 29.8828 15.8276 29.8142 16.092 29.7303C18.2176 29.0561 19.6822 27.2624 19.9623 24.9902C19.9981 24.7002 20.0106 24.2651 19.9902 24.0234C19.7521 21.208 18.3171 6.27315 18.2567 5.98276C18.1436 5.43906 17.9673 4.99251 17.7014 4.57626C17.4958 4.25441 17.4125 4.16007 17.4125 4.24913ZM7.20879 23.7888C6.85513 23.8515 6.39006 24.1101 6.16531 24.3692C6.06721 24.4822 5.91919 24.7209 5.83632 24.8996L5.6857 25.2246L5.66716 27.6123L5.64863 30H10H14.3514L14.3328 27.6123L14.3143 25.2246L14.1637 24.8996C13.9487 24.436 13.6944 24.1709 13.2539 23.9514L12.8693 23.7597L10.1751 23.7502C8.69332 23.7449 7.35843 23.7623 7.20879 23.7888Z" fill="white"/>
</svg>
