<?xml version="1.0" encoding="iso-8859-1"?>
<!-- Uploaded to: SVG Repo, www.svgrepo.com, Generator: SVG Repo Mixer Tools -->
<svg fill="#000000" version="1.1" id="Layer_1" xmlns="http://www.w3.org/2000/svg" xmlns:xlink="http://www.w3.org/1999/xlink" 
	 viewBox="0 0 512 512" xml:space="preserve">
<g>
	<g>
		<rect x="62.903" y="116.254" width="255.92" height="233.188" fill="white"/>
	</g>
</g>
<g>
	<g>
		<path d="M0,430.551h30.417v46.308h105.859v-46.308h239.448v46.308h105.859v-46.308H512V35.141H0V430.551z M426.584,101.045
			c13.039,0,23.609,10.57,23.609,23.609s-10.57,23.609-23.609,23.609c-13.039,0-23.609-10.57-23.609-23.609
			S413.545,101.045,426.584,101.045z M426.584,168.54c13.039,0,23.609,10.57,23.609,23.609s-10.57,23.609-23.609,23.609
			c-13.039,0-23.609-10.57-23.609-23.609S413.545,168.54,426.584,168.54z M388.863,248.048h75.442v30.417h-75.442V248.048z
			 M388.863,298.743h75.442v30.417h-75.442V298.743z M388.863,349.438h75.442v30.417h-75.442V349.438z M32.487,85.836h316.751
			v294.019H32.487V85.836z" fill="white"/>
	</g>
</g>
</svg>