<?xml version="1.0" encoding="UTF-8" standalone="no"?>
<!-- Uploaded to: SVG Repo, www.svgrepo.com, Generator: SVG Repo Mixer Tools -->

<svg
   fill="#ffffff"
   width="800px"
   height="800px"
   viewBox="0 0 14 14"
   role="img"
   focusable="false"
   aria-hidden="true"
   version="1.1"
   id="svg4"
   sodipodi:docname="openbox.svg"
   inkscape:version="1.1.1 (3bf5ae0d25, 2021-09-20)"
   xmlns:inkscape="http://www.inkscape.org/namespaces/inkscape"
   xmlns:sodipodi="http://sodipodi.sourceforge.net/DTD/sodipodi-0.dtd"
   xmlns="http://www.w3.org/2000/svg"
   xmlns:svg="http://www.w3.org/2000/svg">
  <defs
     id="defs8" />
  <sodipodi:namedview
     id="namedview6"
     pagecolor="#ffffff"
     bordercolor="#666666"
     borderopacity="1.0"
     inkscape:pageshadow="2"
     inkscape:pageopacity="0.0"
     inkscape:pagecheckerboard="0"
     showgrid="false"
     inkscape:zoom="1.09125"
     inkscape:cx="400"
     inkscape:cy="400.45819"
     inkscape:window-width="2880"
     inkscape:window-height="1526"
     inkscape:window-x="5749"
     inkscape:window-y="777"
     inkscape:window-maximized="1"
     inkscape:current-layer="svg4" />
  <path
     d="M 1.2255603,1.5356547 0.10818271,4.3872569 c -0.09980463,0.2552028 0.006505,0.5603247 0.21913614,0.6379997 L 4.6210862,6.5925296 C 4.7751324,6.6480117 4.9400269,6.5647146 5.0224743,6.3900274 L 7.0142269,2.1736544 1.5857246,1.2887668 C 1.4360178,1.266574 1.2928199,1.3636306 1.2255603,1.5356547 Z M 13.920271,4.3872569 12.802893,1.5356547 C 12.735636,1.363675 12.590267,1.2638073 12.440559,1.2887668 L 7.0142269,2.1736544 9.0038098,6.3928088 C 9.086256,6.5675553 9.2511517,6.6507784 9.4051979,6.5952964 L 13.698965,5.0280233 c 0.214798,-0.080486 0.318942,-0.3855636 0.221306,-0.6407664 z M 9.3075629,7.4995953 c -0.3666734,0 -0.7116501,-0.2496547 -0.8982414,-0.6490961 L 7.0142269,3.8934958 5.6213018,6.8504992 C 5.432541,7.2527221 5.0875642,7.5023768 4.7208908,7.5023768 c -0.097635,0 -0.1952699,-0.016571 -0.2885655,-0.052671 L 1.4598842,6.3623159 v 4.9375961 c 0,0.407771 0.2169664,0.762827 0.5250589,0.859913 l 4.690816,1.500709 c 0.2213058,0.06939 0.4534601,0.06939 0.6725961,0 l 4.6951568,-1.500709 c 0.308091,-0.09987 0.525058,-0.454924 0.525058,-0.859913 V 6.3623159 L 9.5961284,7.4469243 c -0.093295,0.0361 -0.1909305,0.052671 -0.2885655,0.052671 z"
     id="path2"
     style="stroke-width:1.30849" />
</svg>
