<?xml version="1.0" encoding="iso-8859-1"?>
<!-- Uploaded to: SVG Repo, www.svgrepo.com, Generator: SVG Repo Mixer Tools -->
<svg fill="#000000" version="1.1" id="Layer_1" xmlns="http://www.w3.org/2000/svg" xmlns:xlink="http://www.w3.org/1999/xlink" 
	 viewBox="0 0 512 512" xml:space="preserve">
<g>
	<g>
		<path d="M441.624,0H70.377c-23.17,0-42.02,18.851-42.02,42.02v82.764h455.287V42.02C483.644,18.851,464.794,0,441.624,0z
			 M130.702,88.601c-14.451,0-26.208-11.757-26.208-26.208c0-14.451,11.757-26.208,26.208-26.208
			c14.451,0,26.208,11.757,26.208,26.208C156.91,76.844,145.154,88.601,130.702,88.601z M214.235,88.601
			c-14.451,0-26.208-11.757-26.208-26.208c0-14.451,11.757-26.208,26.208-26.208c14.451,0,26.208,11.757,26.208,26.208
			C240.443,76.844,228.686,88.601,214.235,88.601z M297.765,88.601c-14.451,0-26.208-11.757-26.208-26.208
			c0-14.451,11.757-26.208,26.208-26.208c14.451,0,26.208,11.757,26.208,26.208C323.974,76.844,312.218,88.601,297.765,88.601z
			 M381.298,88.601c-14.451,0-26.208-11.757-26.208-26.208c0-14.451,11.757-26.208,26.208-26.208s26.209,11.757,26.209,26.208
			C407.507,76.844,395.749,88.601,381.298,88.601z" fill="white"/>
	</g>
</g>
<g>
	<g>
		<rect x="119.611" y="231.241" width="272.781" height="28.365" fill="white"/>
	</g>
</g>
<g>
	<g>
		<rect x="119.611" y="290.028" width="272.781" height="28.365" fill="white"/>
	</g>
</g>
<g>
	<g>
		<rect x="119.611" y="348.804" width="272.781" height="28.365" fill="white"/>
	</g>
</g>
<g>
	<g>
		<rect x="119.611" y="407.59" width="272.781" height="28.365" fill="white"/>
	</g>
</g>
<g>
	<g>
		<path d="M28.356,155.202L28.357,512h455.286V155.202H28.356z M422.809,466.373H89.191V200.827h333.619V466.373z" fill="white"/>
	</g>
</g>
</svg>