<svg id="Capa_1" enable-background="new 0 0 512.002 512.002" height="512" viewBox="0 0 512.002 512.002" width="512" xmlns="http://www.w3.org/2000/svg"><g fill="white"><g id="Page-1_6_"><g id="ride_filled_6_" transform="translate(-536 -196)"><path id="boot_x2C_-car_x2C_-lid_x2C_-storage_x2C_-back" d="m867.294 534.825h-165.647c0-37.425-30.339-67.765-67.765-67.765s-67.765 30.339-67.765 67.765h-15.059c-8.317 0-15.059-6.742-15.059-15.059v-82.824c0-7.494 5.511-13.848 12.929-14.908l99.603-14.229 64.049-78.282c2.86-3.496 7.138-5.523 11.655-5.523h173.176c5.148 0 9.94 2.63 12.705 6.974l36.617 57.54 43.559-65.338c3.53-5.295 10.008-7.8 16.182-6.256l30.118 7.529c8.068 2.017 12.974 10.193 10.957 18.262-2.017 8.068-10.193 12.974-18.261 10.957l-19.822-4.956-38.741 58.111h62.217c8.317 0 15.059 6.742 15.059 15.059v97.882c0 8.317-6.742 15.059-15.059 15.059h-30.118c0-37.425-30.339-67.765-67.765-67.765s-67.765 30.341-67.765 67.767zm-179.046-128h234.437l-33.54-52.706h-157.774zm-54.366 180.706c-29.108 0-52.706-23.597-52.706-52.706s23.597-52.706 52.706-52.706c29.108 0 52.706 23.597 52.706 52.706 0 29.108-23.597 52.706-52.706 52.706zm0-30.118c12.475 0 22.588-10.113 22.588-22.588s-10.113-22.588-22.588-22.588-22.588 10.113-22.588 22.588 10.113 22.588 22.588 22.588zm301.177 30.118c-29.108 0-52.706-23.597-52.706-52.706s23.597-52.706 52.706-52.706 52.706 23.597 52.706 52.706c0 29.108-23.598 52.706-52.706 52.706zm0-30.118c12.475 0 22.588-10.113 22.588-22.588s-10.113-22.588-22.588-22.588-22.588 10.113-22.588 22.588 10.113 22.588 22.588 22.588z"/></g></g></g></svg>